<svg width="40" height="41" viewBox="0 0 40 41" fill="none" xmlns="http://www.w3.org/2000/svg">
<path d="M2.5 15.6666C2.5 11.2329 2.5 9.01604 3.36286 7.32257C4.12186 5.83296 5.33296 4.62186 6.82257 3.86286C8.51604 3 10.7329 3 15.1666 3H24.8334C29.2671 3 31.484 3 33.1774 3.86286C34.667 4.62186 35.8781 5.83296 36.6371 7.32257C37.5 9.01604 37.5 11.2329 37.5 15.6666V25.3334C37.5 29.7671 37.5 31.984 36.6371 33.6774C35.8781 35.167 34.667 36.3781 33.1774 37.1371C31.484 38 29.2671 38 24.8334 38H15.1666C10.7329 38 8.51604 38 6.82257 37.1371C5.33296 36.3781 4.12186 35.167 3.36286 33.6774C2.5 31.984 2.5 29.7671 2.5 25.3334V15.6666Z" fill="#330000"/>
<path d="M19.4607 24.9952H14.0371L12.9336 28.5111C12.903 28.6417 12.7827 28.7342 12.6519 28.7277H9.9048C9.74813 28.7277 9.69336 28.6394 9.74045 28.4628L14.4362 14.5921C14.4832 14.4476 14.5302 14.2831 14.5771 14.0984C14.6386 13.7771 14.67 13.4506 14.6711 13.1232C14.6576 13.0264 14.7426 12.941 14.8354 12.9545H18.5686C18.678 12.9545 18.7405 12.9947 18.7564 13.0749L24.0862 28.4869C24.1331 28.6476 24.0862 28.7278 23.9454 28.7277H20.893C20.786 28.7399 20.6837 28.6666 20.6582 28.5592L19.4607 24.9952ZM14.8824 21.9609H18.5921C17.9826 19.8782 17.2947 17.8228 16.7372 15.7239C16.1357 17.8264 15.4795 19.9204 14.8824 21.9609Z" fill="#FF9A00"/>
<path d="M27.2555 15.5073C27.016 15.5171 26.7773 15.475 26.5547 15.3838C26.3322 15.2925 26.1309 15.154 25.9642 14.9775C25.7979 14.7933 25.6687 14.5773 25.584 14.3416C25.4994 14.1061 25.461 13.8558 25.471 13.6049C25.4625 13.3565 25.5052 13.1091 25.5962 12.8788C25.6873 12.6485 25.8247 12.4405 25.9994 12.2684C26.1724 12.098 26.3767 11.9645 26.6004 11.8757C26.824 11.7868 27.0627 11.7443 27.3024 11.7506C27.866 11.7506 28.3082 11.9232 28.629 12.2684C28.791 12.4477 28.9169 12.6581 28.9995 12.8874C29.082 13.1168 29.1198 13.3606 29.1103 13.6049C29.1202 13.8566 29.0805 14.108 28.9938 14.3438C28.9072 14.5795 28.775 14.795 28.6055 14.9775C28.4284 15.1566 28.2169 15.2961 27.9847 15.3874C27.7523 15.4785 27.504 15.5194 27.2555 15.5073ZM25.6354 28.487V16.9763C25.6354 16.8318 25.6978 16.7595 25.8233 16.7595H28.7113C28.8363 16.7595 28.8989 16.8318 28.899 16.9763V28.487C28.899 28.6478 28.8364 28.728 28.7113 28.7279H25.8468C25.7059 28.7279 25.6354 28.6476 25.6354 28.487Z" fill="#FF9A00"/>
</svg>
