<svg width="41" height="42" viewBox="0 0 41 42" fill="none" xmlns="http://www.w3.org/2000/svg">
<path d="M11.5569 20.1981C11.5569 20.7029 11.6082 21.1129 11.7055 21.4153C11.8132 21.7151 11.9515 22.0431 12.1412 22.3993C12.2017 22.4934 12.2345 22.6026 12.236 22.7145C12.236 22.8503 12.154 22.9887 11.9797 23.1245L11.1187 23.6985C11.0154 23.7731 10.8924 23.8159 10.7651 23.8215C10.6267 23.8215 10.4909 23.7549 10.3551 23.6319C10.1709 23.4337 10.0062 23.2183 9.8631 22.9887C9.71066 22.7258 9.56959 22.4565 9.44029 22.1815C8.37685 23.4397 7.04179 24.0701 5.43254 24.0701C4.2871 24.0701 3.37229 23.7395 2.70604 23.0835C2.03722 22.4275 1.69641 21.5511 1.69641 20.4569C1.69641 19.2936 2.10641 18.3506 2.93666 17.6382C3.76947 16.9258 4.87391 16.5722 6.27816 16.5722C6.73941 16.5722 7.2186 16.6132 7.72341 16.6798C8.22822 16.749 8.74841 16.8592 9.29166 16.9822V15.9828C9.29166 14.9424 9.07385 14.2173 8.65104 13.7944C8.21541 13.3691 7.47741 13.1641 6.42679 13.1641C5.95016 13.1641 5.46072 13.2204 4.95591 13.3434C4.45436 13.4628 3.96196 13.6178 3.48247 13.8073C3.32767 13.8773 3.16845 13.9373 3.00585 13.9866C2.93539 14.0099 2.86214 14.0237 2.78804 14.0276C2.59585 14.0276 2.50104 13.8893 2.50104 13.6023V12.9309C2.50104 12.7131 2.52666 12.5465 2.59585 12.4543C2.69911 12.3285 2.83088 12.2293 2.98022 12.1647C3.45429 11.9187 4.02829 11.7137 4.6971 11.5497C5.36335 11.3703 6.07316 11.2909 6.82397 11.2909C8.44604 11.2909 9.63247 11.6599 10.3961 12.3979C11.1469 13.1359 11.5287 14.2583 11.5287 15.765V20.1981H11.5543H11.5569ZM6.01935 22.2763C6.46779 22.2763 6.9316 22.1943 7.4236 22.0303C7.91304 21.8663 8.35122 21.5639 8.71766 21.1539C8.93739 20.9022 9.09611 20.6032 9.18147 20.2801C9.26347 19.9496 9.31985 19.5549 9.31985 19.0886V18.5146C8.90597 18.4142 8.48676 18.3372 8.06422 18.2839C7.63933 18.229 7.21141 18.2007 6.78297 18.1994C5.86816 18.1994 5.19935 18.3788 4.75091 18.7478C4.29991 19.1168 4.08466 19.6369 4.08466 20.3211C4.08466 20.9618 4.2461 21.4409 4.58691 21.7715C4.91491 22.1123 5.39154 22.2763 6.01935 22.2763ZM16.9689 23.7549C16.7229 23.7549 16.5589 23.7139 16.4513 23.6165C16.3411 23.5345 16.2463 23.3449 16.1643 23.0835L12.9612 12.5081C12.898 12.3308 12.8558 12.1468 12.8356 11.9597C12.8356 11.7419 12.9458 11.6189 13.1636 11.6189H14.5012C14.7575 11.6189 14.9368 11.6599 15.0317 11.7547C15.1418 11.8367 15.2238 12.0289 15.3059 12.2877L17.5967 21.3461L19.7236 12.2877C19.7902 12.0161 19.8722 11.8367 19.9798 11.7547C20.1443 11.654 20.3358 11.6065 20.5282 11.6189H21.6173C21.8787 11.6189 22.0529 11.6599 22.1631 11.7547C22.2733 11.8367 22.3681 12.0289 22.4219 12.2877L24.577 21.4563L26.9345 12.2877C26.9782 12.0893 27.0727 11.9056 27.2087 11.7547C27.3674 11.6541 27.5541 11.6065 27.7417 11.6189H29.0101C29.2279 11.6189 29.3509 11.7291 29.3509 11.9597C29.3509 12.0289 29.3355 12.0981 29.3253 12.1801C29.3033 12.2964 29.2707 12.4105 29.2279 12.5209L25.9402 23.0963C25.8582 23.3705 25.7634 23.5499 25.6558 23.6319C25.501 23.7309 25.319 23.7784 25.1356 23.7677H23.9645C23.7057 23.7677 23.5289 23.7267 23.4187 23.6319C23.3085 23.5345 23.2137 23.3577 23.1599 23.0835L21.0459 14.2608L18.9446 23.0733C18.878 23.3474 18.796 23.5243 18.6884 23.6191C18.5782 23.7164 18.386 23.7574 18.1425 23.7574H16.9689V23.7549ZM34.4913 24.1239C33.7836 24.1248 33.0783 24.0423 32.39 23.8779C31.7084 23.7139 31.178 23.5345 30.8218 23.3295C30.604 23.2065 30.4554 23.0707 30.399 22.9451C30.3469 22.8246 30.3199 22.6947 30.3195 22.5633V21.8663C30.3195 21.5793 30.4272 21.4409 30.6322 21.4409C30.7159 21.4411 30.7989 21.455 30.8782 21.4819C30.9602 21.5101 31.0832 21.5639 31.219 21.6203C31.6802 21.8253 32.1876 21.9893 32.718 22.0995C33.2639 22.2071 33.7943 22.2635 34.3401 22.2635C35.2011 22.2635 35.8674 22.1123 36.3312 21.8125C36.554 21.6776 36.7371 21.4861 36.8617 21.2574C36.9864 21.0287 37.0483 20.7711 37.041 20.5108C37.0456 20.335 37.0153 20.16 36.952 19.996C36.8887 19.8319 36.7935 19.682 36.672 19.5549C36.4285 19.2936 35.9647 19.0604 35.2959 18.8426L33.3177 18.2276C32.3234 17.9124 31.5854 17.446 31.137 16.831C30.698 16.2628 30.4584 15.5657 30.4554 14.8476C30.4554 14.2736 30.5784 13.7663 30.8218 13.3281C31.0678 12.8924 31.3958 12.5081 31.8058 12.2057C32.2158 11.8931 32.677 11.6599 33.2229 11.4959C33.7687 11.3319 34.3401 11.2627 34.9397 11.2627C35.2421 11.2627 35.5547 11.2755 35.8545 11.3165C36.1672 11.3575 36.4542 11.4139 36.7412 11.4703C37.0128 11.5369 37.2742 11.6035 37.5176 11.6881C37.7636 11.7701 37.9532 11.8521 38.0916 11.9341C38.2525 12.0149 38.3928 12.1315 38.5016 12.2749C38.5893 12.4083 38.6316 12.5665 38.622 12.7259V13.3691C38.622 13.6561 38.5144 13.8073 38.3094 13.8073C38.1279 13.7865 37.9521 13.7308 37.7918 13.6433C36.9678 13.2779 36.0742 13.096 35.1729 13.1103C34.3965 13.1103 33.7815 13.2333 33.3587 13.4946C32.9359 13.7509 32.718 14.1506 32.718 14.7118C32.718 15.0936 32.8539 15.4216 33.128 15.683C33.3997 15.9418 33.9045 16.2006 34.6271 16.4338L36.5644 17.0488C37.5458 17.364 38.2556 17.8022 38.6784 18.3634C39.1012 18.9246 39.3037 19.5678 39.3037 20.2801C39.3037 20.8695 39.1832 21.3999 38.95 21.8663C38.7086 22.3343 38.3696 22.745 37.9558 23.0707C37.533 23.4115 37.0282 23.6601 36.4414 23.8369C35.8264 24.0291 35.1857 24.1239 34.4913 24.1239Z" fill="white"/>
<path fill-rule="evenodd" clip-rule="evenodd" d="M37.0665 30.7709C32.5821 34.0945 26.0631 35.8601 20.4589 35.8601C12.6049 35.8601 5.52726 32.9465 0.181881 28.1034C-0.240932 27.719 0.140881 27.1988 0.643131 27.5012C6.42669 30.8658 13.5581 32.9055 20.9381 32.9055C25.9119 32.9055 31.3803 31.8651 36.4131 29.7306C37.1639 29.3898 37.8045 30.2226 37.0665 30.7709Z" fill="#FF9900"/>
<path fill-rule="evenodd" clip-rule="evenodd" d="M38.9346 28.6364C38.3631 27.901 35.1446 28.2828 33.6866 28.4596C33.251 28.516 33.1818 28.1316 33.5764 27.8446C36.1389 26.038 40.3542 26.5582 40.8436 27.1604C41.3356 27.7754 40.7078 32.0035 38.3068 34.0279C37.9403 34.3431 37.5867 34.1816 37.7481 33.7716C38.294 32.4135 39.5086 29.3641 38.9346 28.639V28.6364Z" fill="#FF9900"/>
</svg>
