<svg width="40" height="41" viewBox="0 0 40 41" fill="none" xmlns="http://www.w3.org/2000/svg">
<g clip-path="url(#clip0_430_5138)">
<path d="M11.0211 11.39L8.43579 8.80469L8.44673 27.4922L8.47767 28.3656C8.49048 28.7766 8.56673 29.2403 8.69392 29.7209L29.1789 36.9444L34.2995 34.6756L34.3014 34.6694L11.0211 11.39Z" fill="#00D2B8"/>
<path d="M8.69383 29.7206L8.69508 29.7219C8.69383 29.7134 8.68945 29.7041 8.68945 29.6953C8.68945 29.7041 8.6907 29.7122 8.69383 29.7206ZM34.2995 34.6753L29.1788 36.9441L8.69508 29.7219C9.08633 31.2231 9.95258 32.9106 10.8848 33.8334L17.5698 40.4803L32.4338 40.4997L34.3013 34.6691L34.2995 34.6753Z" fill="#55DDCA"/>
<path d="M0.474118 20.8306C-0.187757 21.5372 0.140993 22.9947 1.20662 24.0684L5.80318 28.7031L8.69381 29.7209C8.56662 29.2403 8.49037 28.7766 8.47756 28.3656L8.44662 27.4922L8.43568 8.80469L0.474118 20.8306Z" fill="#0081C6"/>
<path d="M29.347 9.04453C28.8664 8.92172 28.4055 8.84578 27.9877 8.83266L27.0645 8.80078L8.43579 8.80328L34.3039 34.6692H34.3061L36.578 29.5436L29.347 9.04453Z" fill="#0079B3"/>
<path d="M29.3235 9.03955C29.3335 9.04174 29.3413 9.04455 29.3479 9.04549L29.3469 9.04455C29.3413 9.04174 29.3335 9.04174 29.3235 9.03955ZM33.456 11.2392C32.5172 10.2927 30.8519 9.43236 29.3479 9.04549L36.5779 29.5436L34.306 34.6692H34.3038L39.8557 32.8961L39.8675 17.6749L33.456 11.2392Z" fill="#00A4E4"/>
<path d="M28.3342 6.17142L23.7008 1.57204C22.6292 0.510482 21.1711 0.180169 20.4664 0.840169L8.43579 8.80329L27.0645 8.80079L27.9877 8.83267C28.4055 8.84579 28.8664 8.92173 29.347 9.04454L28.3342 6.17142Z" fill="#00D2B8"/>
</g>
<defs>
<clipPath id="clip0_430_5138">
<rect width="40" height="40" fill="white" transform="translate(0 0.5)"/>
</clipPath>
</defs>
</svg>
