<svg width="40" height="41" viewBox="0 0 40 41" fill="none" xmlns="http://www.w3.org/2000/svg">
<path fill-rule="evenodd" clip-rule="evenodd" d="M20 20.5C20 17.7386 22.2386 15.5 25 15.5C27.7614 15.5 30 17.7386 30 20.5C30 23.2614 27.7614 25.5 25 25.5C22.2386 25.5 20 23.2614 20 20.5Z" fill="#1ABCFE"/>
<path fill-rule="evenodd" clip-rule="evenodd" d="M10 30.5C10 27.7386 12.2386 25.5 15 25.5H20V30.5C20 33.2614 17.7614 35.5 15 35.5C12.2386 35.5 10 33.2614 10 30.5Z" fill="#0ACF83"/>
<path fill-rule="evenodd" clip-rule="evenodd" d="M20 5.5V15.5H25C27.7614 15.5 30 13.2614 30 10.5C30 7.73857 27.7614 5.5 25 5.5H20Z" fill="#FF7262"/>
<path fill-rule="evenodd" clip-rule="evenodd" d="M10 10.5C10 13.2614 12.2386 15.5 15 15.5H20V5.5H15C12.2386 5.5 10 7.73857 10 10.5Z" fill="#F24E1E"/>
<path fill-rule="evenodd" clip-rule="evenodd" d="M10 20.5C10 23.2614 12.2386 25.5 15 25.5H20V15.5H15C12.2386 15.5 10 17.7386 10 20.5Z" fill="#A259FF"/>
</svg>
