<svg width="40" height="41" viewBox="0 0 40 41" fill="none" xmlns="http://www.w3.org/2000/svg">
<path d="M7.25 31.2498L7.4625 30.9536L17.4875 11.9361L17.5087 11.7348L13.09 3.4348C13.0091 3.28302 12.8825 3.16052 12.7282 3.08463C12.5738 3.00874 12.3995 2.9833 12.23 3.01191C12.0604 3.04053 11.9041 3.12174 11.7832 3.24407C11.6623 3.36639 11.5829 3.52364 11.5562 3.69355L7.25 31.2498Z" fill="#FFC24A"/>
<path d="M7.375 31.0252L7.535 30.7127L17.4563 11.8927L13.0487 3.56023C12.9761 3.41532 12.8584 3.29786 12.7133 3.22545C12.5683 3.15304 12.4037 3.12958 12.2442 3.15858C12.0847 3.18758 11.9389 3.26748 11.8286 3.38631C11.7183 3.50515 11.6495 3.65651 11.6325 3.81773L7.375 31.0252Z" fill="#FFA712"/>
<path d="M20.7299 18.0123L24.0199 14.6373L20.7287 8.36102C20.6563 8.22595 20.5485 8.11304 20.417 8.03434C20.2855 7.95563 20.1351 7.91406 19.9818 7.91406C19.8285 7.91406 19.6781 7.95563 19.5466 8.03434C19.4151 8.11304 19.3074 8.22595 19.2349 8.36102L17.4762 11.7135V11.9998L20.7299 18.0123Z" fill="#F4BD62"/>
<path d="M20.6713 17.875L23.87 14.6L20.6713 8.50003C20.6189 8.36799 20.5295 8.25391 20.4138 8.17156C20.2981 8.0892 20.161 8.04207 20.0191 8.03586C19.8772 8.02965 19.7365 8.06462 19.614 8.13656C19.4915 8.20849 19.3925 8.31432 19.3288 8.44128L17.5613 11.8525L17.5088 12.0263L20.6713 17.875Z" fill="#FFA50E"/>
<path d="M7.25244 31.2511L7.34869 31.1536L7.69744 31.0123L20.5224 18.2348L20.6849 17.7923L17.4862 11.6948L7.25244 31.2511Z" fill="#F6820C"/>
<path d="M21.14 37.6949L32.75 31.2212L29.4325 10.8074C29.4087 10.6635 29.3457 10.5289 29.2505 10.4185C29.1552 10.308 29.0314 10.2259 28.8926 10.1812C28.7537 10.1366 28.6052 10.131 28.4634 10.1651C28.3216 10.1993 28.192 10.2719 28.0888 10.3749L7.25 31.2499L18.7913 37.6937C19.1501 37.8939 19.5541 37.999 19.965 37.999C20.3759 37.999 20.7799 37.8939 21.1387 37.6937" fill="#FDE068"/>
<path d="M32.6437 31.1676L29.3538 10.9076C29.3479 10.77 29.3014 10.6371 29.2201 10.5259C29.1388 10.4148 29.0263 10.3302 28.8969 10.2829C28.7675 10.2357 28.6269 10.2279 28.4931 10.2606C28.3593 10.2932 28.2381 10.3648 28.145 10.4664L7.375 31.2114L18.7888 37.5864C19.1447 37.7849 19.5455 37.8892 19.9531 37.8892C20.3607 37.8892 20.7615 37.7849 21.1175 37.5864L32.6437 31.1676Z" fill="#FCCA3F"/>
<path d="M21.14 37.5001C20.7812 37.7004 20.3771 37.8055 19.9662 37.8055C19.5554 37.8055 19.1513 37.7004 18.7925 37.5001L7.345 31.1526L7.25 31.2501L18.7913 37.6939C19.1501 37.8941 19.5541 37.9992 19.965 37.9992C20.3759 37.9992 20.7799 37.8941 21.1387 37.6939L32.75 31.2214L32.7212 31.0464L21.14 37.5001Z" fill="#EEAB37"/>
</svg>
