<svg width="40" height="41" viewBox="0 0 40 41" fill="none" xmlns="http://www.w3.org/2000/svg">
<path d="M25.7825 13.9401L30.5 10.1901L29.67 9.1551C27.7867 7.51317 25.5193 6.37341 23.078 5.84154C20.6367 5.30967 18.1006 5.4029 15.705 6.1126C13.3186 6.83347 11.1543 8.14839 9.41487 9.93416C7.67545 11.7199 6.41788 13.9181 5.76 16.3226C5.685 16.6051 6.54 16.0776 6.9175 16.1826L13.4375 15.1126C13.4375 15.1126 13.755 14.8026 13.94 14.6001C16.84 11.4351 21.755 11.0201 25.1025 13.7151L25.7825 13.9401Z" fill="#EA4335"/>
<path d="M34.0926 16.2498C33.3416 13.5037 31.8034 11.0373 29.6676 9.15479L25.0926 13.7048C26.0439 14.4766 26.8069 15.4549 27.3237 16.5656C27.8405 17.6762 28.0974 18.89 28.0751 20.1148V20.9223C30.3251 20.9223 32.1501 22.7348 32.1501 24.9723C32.1501 27.2048 30.3251 29.0198 28.0751 29.0198L19.9326 29.0123L19.1201 29.0998V35.3673L19.9326 35.4998H28.0751C30.3445 35.522 32.5609 34.8143 34.3975 33.481C36.234 32.1477 37.5934 30.2595 38.2751 28.0948C38.9481 25.9331 38.9043 23.6118 38.15 21.4772C37.3958 19.3425 35.9717 17.5089 34.0901 16.2498H34.0926Z" fill="#4285F4"/>
<path d="M11.7776 35.4974H19.9251V29.0124H11.7751C11.1951 29.0124 10.6226 28.8474 10.0951 28.6099L8.95007 28.9599L5.66757 32.2024L5.38257 33.3199C7.22056 34.72 9.46454 35.4835 11.7751 35.4949L11.7776 35.4974Z" fill="#34A853"/>
<path d="M11.7775 14.4298C9.5756 14.439 7.43138 15.1346 5.64344 16.4197C3.8555 17.7049 2.51286 19.5156 1.80248 21.5998C1.0996 23.6827 1.06718 25.9334 1.70978 28.0357C2.35239 30.1379 3.63769 31.9859 5.38498 33.3198L10.11 28.6098C9.30715 28.2518 8.64288 27.6419 8.21782 26.8725C7.79277 26.103 7.63009 25.216 7.75444 24.3458C7.8788 23.4757 8.2834 22.6697 8.90695 22.0501C9.5305 21.4305 10.339 21.0311 11.21 20.9123C12.0811 20.7873 12.9693 20.9477 13.7417 21.3695C14.5141 21.7913 15.1292 22.4519 15.495 23.2523L20.22 18.5573C19.2245 17.2662 17.9447 16.2222 16.48 15.5063C15.0153 14.7904 13.4077 14.422 11.7775 14.4298Z" fill="#FBBC05"/>
</svg>
