<svg width="302" height="303" viewBox="0 0 302 303" fill="none" xmlns="http://www.w3.org/2000/svg">
<path d="M146.665 6.95422L139.099 21.3356" stroke="white" stroke-width="7" stroke-linecap="round"/>
<path d="M83.1646 24.6732L95.8447 31.7892" stroke="white" stroke-width="7" stroke-linecap="round"/>
<path d="M110.665 4.09375L115.557 17.5946" stroke="white" stroke-width="7" stroke-linecap="round"/>
<path d="M244.865 177.297C244.039 177.907 243.131 178.515 242.174 179.124C238.074 181.731 233.578 183.73 228.909 185.074C227.869 185.374 226.854 185.628 225.865 185.797L240.974 231.501C241.557 233.264 241.637 235.155 241.206 236.961L234.31 265.857C233.92 267.491 235.596 268.848 237.113 268.128L296.65 239.847C298.211 239.106 298.16 236.867 296.566 236.197L269.466 224.81C267.151 223.837 265.286 222.028 264.243 219.743L244.865 177.297Z" stroke="white" stroke-width="7"/>
<path d="M230.318 69.9129C231.354 71.5452 230.87 73.7078 229.237 74.7432C227.605 75.7785 225.442 75.2945 224.407 73.6622L230.318 69.9129ZM232.439 85.5298C231.476 83.8533 232.055 81.7142 233.732 80.752C235.408 79.7898 237.547 80.3688 238.51 82.0453L232.439 85.5298ZM148.562 64.7099L151.93 63.7594L148.562 64.7099ZM204.146 37.6553L207.002 35.6324L204.146 37.6553ZM224.407 73.6622C217.537 62.8314 207.69 48.7148 201.29 39.6782L207.002 35.6324C213.406 44.6742 223.344 58.9179 230.318 69.9129L224.407 73.6622ZM189.492 36.7045L156.899 52.6456L153.824 46.3574L186.417 30.4164L189.492 36.7045ZM251.554 118.836L232.439 85.5298L238.51 82.0453L257.625 115.351L251.554 118.836ZM151.93 63.7594L173.627 140.652L166.89 142.553L145.193 65.6604L151.93 63.7594ZM241.856 174.896C248.234 170.187 252.458 165.644 255.049 160.307C257.639 154.972 258.762 148.503 258.341 139.668L265.333 139.335C265.79 148.918 264.606 156.65 261.346 163.364C258.089 170.074 252.922 175.427 246.014 180.528L241.856 174.896ZM194.522 176.537C202.784 182.475 211.481 184.419 224.882 182.139L226.056 189.04C211.192 191.569 200.507 189.459 190.437 182.221L194.522 176.537ZM170.871 138.156C200.712 143.46 231.511 142.779 261.065 136.088L262.61 142.915C232.14 149.813 200.399 150.514 169.646 145.048L170.871 138.156ZM257.625 115.351C261.752 122.541 264.919 130.648 265.333 139.335L258.341 139.668C257.998 132.461 255.349 125.447 251.554 118.836L257.625 115.351ZM246.014 180.528C240.15 184.858 233.256 187.815 226.056 189.04L224.882 182.139C230.988 181.1 236.862 178.584 241.856 174.896L246.014 180.528ZM173.627 140.652C177.658 154.936 183.41 168.551 194.522 176.537L190.437 182.221C177.256 172.748 170.984 157.061 166.89 142.553L173.627 140.652ZM156.899 52.6456C152.775 54.6627 150.683 59.3408 151.93 63.7594L145.193 65.6604C143.028 57.9859 146.66 49.8609 153.824 46.3574L156.899 52.6456ZM201.29 39.6782C198.636 35.9316 193.649 34.6713 189.492 36.7045L186.417 30.4164C193.624 26.8914 202.344 29.0554 207.002 35.6324L201.29 39.6782Z" fill="white"/>
<path d="M57.1011 208.297C57.9275 208.907 58.836 209.515 59.793 210.124C63.8922 212.731 68.3886 214.73 73.0572 216.074C74.0971 216.374 75.1122 216.628 76.1011 216.797L60.9927 262.501C60.4098 264.264 60.3295 266.155 60.7606 267.961L67.657 296.857C68.047 298.491 66.3709 299.848 64.8536 299.128L5.31683 270.847C3.75556 270.106 3.80669 267.867 5.40018 267.197L32.5002 255.81C34.8156 254.837 36.6802 253.028 37.7232 250.743L57.1011 208.297Z" stroke="white" stroke-width="7"/>
<path d="M71.6484 100.913C70.613 102.545 71.097 104.708 72.7294 105.743C74.3617 106.778 76.5243 106.295 77.5596 104.662L71.6484 100.913ZM69.5281 116.53C70.4903 114.853 69.9112 112.714 68.2347 111.752C66.5582 110.79 64.4191 111.369 63.4569 113.045L69.5281 116.53ZM58.0311 208.712L55.9522 211.528L55.9522 211.528L58.0311 208.712ZM76.4979 216.59L75.9109 220.04L76.4979 216.59ZM73.6207 216.052L74.3171 212.622L73.6207 216.052ZM153.405 95.7099L150.036 94.7594L153.405 95.7099ZM97.8206 68.6553L94.9644 66.6324L97.8206 68.6553ZM77.5596 104.662C84.4292 93.8314 94.2767 79.7148 100.677 70.6782L94.9644 66.6324C88.5605 75.6742 78.6222 89.9179 71.6484 100.913L77.5596 104.662ZM112.474 67.7045L145.067 83.6456L148.143 77.3574L115.55 61.4164L112.474 67.7045ZM50.4123 149.836L69.5281 116.53L63.4569 113.045L44.3412 146.351L50.4123 149.836ZM150.036 94.7594L128.339 171.652L135.076 173.553L156.773 96.6604L150.036 94.7594ZM62.344 207.493C61.5724 206.958 60.828 206.426 60.1101 205.896L55.9522 211.528C56.7311 212.103 57.5329 212.675 58.3575 213.247L62.344 207.493ZM60.1101 205.896C53.7323 201.187 49.5087 196.644 46.9174 191.307C44.3275 185.972 43.2041 179.503 43.6252 170.668L36.6331 170.335C36.1764 179.918 37.361 187.65 40.6202 194.364C43.8779 201.074 49.0443 206.427 55.9522 211.528L60.1101 205.896ZM107.444 207.537C99.1826 213.475 90.4854 215.419 77.085 213.139L75.9109 220.04C90.7749 222.569 101.46 220.459 111.53 213.221L107.444 207.537ZM77.085 213.139C76.1845 212.986 75.2623 212.813 74.3171 212.622L72.9243 219.482C73.938 219.687 74.9332 219.874 75.9109 220.04L77.085 213.139ZM132.641 169.229L122.719 166.484L120.852 173.23L130.774 175.976L132.641 169.229ZM122.719 166.484C95.3434 158.909 66.3953 159.137 39.1426 167.143L41.1156 173.859C67.1163 166.221 94.7344 166.003 120.852 173.23L122.719 166.484ZM44.3412 146.351C40.2149 153.541 37.0471 161.648 36.6331 170.335L43.6252 170.668C43.9687 163.461 46.618 156.447 50.4123 149.836L44.3412 146.351ZM58.3575 213.247C62.7328 216.278 67.6876 218.418 72.9243 219.482L74.3171 212.622C70.0313 211.751 65.9558 209.995 62.344 207.493L58.3575 213.247ZM128.339 171.652C124.309 185.936 118.556 199.551 107.444 207.537L111.53 213.221C124.71 203.748 130.982 188.061 135.076 173.553L128.339 171.652ZM145.067 83.6456C149.192 85.6627 151.283 90.3408 150.036 94.7594L156.773 96.6604C158.939 88.9859 155.306 80.8609 148.143 77.3574L145.067 83.6456ZM100.677 70.6782C103.33 66.9316 108.317 65.6713 112.474 67.7045L115.55 61.4164C108.343 57.8914 99.6226 60.0554 94.9644 66.6324L100.677 70.6782Z" fill="white"/>
</svg>
