<svg width="40" height="41" viewBox="0 0 40 41" fill="none" xmlns="http://www.w3.org/2000/svg">
<g clip-path="url(#clip0_430_5215)">
<path d="M34.1334 8.34131L31.5583 37.19L19.9827 40.3992L8.43892 37.1946L5.86646 8.34131H34.1334Z" fill="#E44D26"/>
<path d="M20 37.946L29.3537 35.3528L31.5543 10.7002H20V37.946Z" fill="#F16529"/>
<path d="M14.9939 17.778H19.9999V14.2393H11.1265L11.2112 15.1886L12.0809 24.9404H19.9999V21.4017H15.3173L14.9939 17.778Z" fill="#EBEBEB"/>
<path d="M15.7913 26.7095H12.239L12.7348 32.2658L19.9836 34.2781L19.9999 34.2736V30.5918L19.9844 30.596L16.0433 29.5318L15.7913 26.7095Z" fill="#EBEBEB"/>
<path d="M8.49634 0.5H10.2947V2.27675H11.9397V0.5H13.7381V5.88043H11.9398V4.07875H10.2948V5.88043H8.49642L8.49634 0.5Z" fill="white"/>
<path d="M16.1032 2.28423H14.52V0.5H19.4856V2.28423H17.9017V5.88043H16.1033L16.1032 2.28423Z" fill="white"/>
<path d="M20.2734 0.5H22.1486L23.3021 2.39052L24.4544 0.5H26.3303V5.88043H24.5394V3.2136L23.3021 5.12664H23.2712L22.033 3.2136V5.88043H20.2734V0.5Z" fill="white"/>
<path d="M27.2253 0.5H29.0242V4.10197H31.5532V5.88043H27.2253V0.5Z" fill="white"/>
<path d="M19.9878 24.9401H24.3453L23.9346 29.5295L19.9878 30.5948V34.2764L27.2424 32.2658L27.2956 31.6679L28.1272 22.3516L28.2135 21.4014H19.9878V24.9401Z" fill="white"/>
<path d="M19.9878 17.7694V17.778H28.5355L28.6065 16.9826L28.7677 15.1886L28.8524 14.2393H19.9878V17.7694Z" fill="white"/>
</g>
<defs>
<clipPath id="clip0_430_5215">
<rect width="40" height="40" fill="white" transform="translate(0 0.5)"/>
</clipPath>
</defs>
</svg>
