<svg width="40" height="41" viewBox="0 0 40 41" fill="none" xmlns="http://www.w3.org/2000/svg">
<g clip-path="url(#clip0_430_5379)">
<path d="M34 0.5H6C2.68629 0.5 0 3.18629 0 6.5V34.5C0 37.8137 2.68629 40.5 6 40.5H34C37.3137 40.5 40 37.8137 40 34.5V6.5C40 3.18629 37.3137 0.5 34 0.5Z" fill="#F7DF1E"/>
<path d="M25.3125 29.4062C26.0938 30.7344 27.1875 31.6719 28.9844 31.6719C30.5469 31.6719 31.5625 30.8906 31.5625 29.7969C31.5625 28.5469 30.5469 28.0781 28.8281 27.2969L27.8906 26.9062C25.1562 25.7344 23.3594 24.3281 23.3594 21.2812C23.3594 18.4688 25.4688 16.2812 28.8281 16.2812C31.25 16.2812 32.9688 17.1406 34.1406 19.3281L31.25 21.2031C30.625 20.0312 29.9219 19.5625 28.8281 19.5625C27.7344 19.5625 27.0312 20.2656 27.0312 21.2031C27.0312 22.2969 27.7344 22.7656 29.375 23.4688L30.3125 23.8594C33.5156 25.2656 35.3125 26.5938 35.3125 29.7969C35.3125 33.1562 32.6562 35.0312 29.0625 35.0312C25.5469 35.0312 23.2812 33.3906 22.1875 31.2031L25.3125 29.4062ZM12.0312 29.7188C12.6562 30.7344 13.125 31.6719 14.4531 31.6719C15.7031 31.6719 16.4844 31.2031 16.4844 29.3281V16.3594H20.2344V29.1719C20.2344 33.0781 17.9688 34.7969 14.6094 34.7969C11.5625 34.7969 9.84375 33.2344 8.98438 31.3594L12.0312 29.7188Z" fill="black"/>
</g>
<defs>
<clipPath id="clip0_430_5379">
<rect width="40" height="40" fill="white" transform="translate(0 0.5)"/>
</clipPath>
</defs>
</svg>
