<svg width="40" height="41" viewBox="0 0 40 41" fill="none" xmlns="http://www.w3.org/2000/svg">
<g clip-path="url(#clip0_430_5260)">
<path d="M11.8239 2.24131C21.9043 -2.2742 33.737 2.23715 38.2525 12.3176C42.768 22.398 38.2567 34.2306 28.1763 38.7461C18.0959 43.2616 6.26322 38.7503 1.7477 28.6699C-2.76782 18.5895 1.74354 6.75683 11.8239 2.24131Z" fill="url(#paint0_radial_430_5260)"/>
<path d="M35.625 32.9937C25.625 41.7437 15 42.3687 4.375 32.9937C6.23801 35.3399 8.61041 37.2355 11.3146 38.5386C14.0188 39.8418 16.9848 40.5186 19.9906 40.5186C22.9963 40.5186 25.964 39.8418 28.6715 38.5386C31.379 37.2355 33.7561 35.3399 35.625 32.9937Z" fill="black" fill-opacity="0.125"/>
<path d="M35.625 8.00596C25.625 -0.744044 15 -1.36904 4.375 8.00596C6.23801 5.65974 8.61041 3.76413 11.3146 2.46099C14.0188 1.15786 16.9848 0.480957 19.9906 0.480957C22.9963 0.480957 25.964 1.15786 28.6715 2.46099C31.379 3.76413 33.7561 5.65974 35.625 8.00596Z" fill="#F4F4F4" fill-opacity="0.153"/>
<path d="M20.805 11.2141C17.3287 9.55962 12.6133 8.80925 6.65886 8.96296L2.71219 9.00407C2.61928 9.03918 2.54429 9.08411 2.49299 9.13541C2.44169 9.18672 2.41544 9.24304 2.41624 9.30005C2.41704 9.35707 2.44489 9.41326 2.49763 9.46432C2.55038 9.51538 2.62663 9.55996 2.72053 9.59462L7.36441 9.92962C12.1177 10.3452 15.6748 10.9863 18.0355 11.853C10.4511 12.123 4.5959 12.7789 0.46997 13.8207C0.277748 13.868 -0.0361413 14.6691 1.33275 14.4252C7.85312 13.5644 13.2994 13.2102 17.6716 13.3624C11.9394 14.5661 7.26293 16.39 3.64219 18.8341C3.11386 19.3246 3.52608 19.9074 4.44164 19.3246C10.3016 16.345 15.524 14.7937 20.1089 14.6707L20.8555 16.3235C16.2783 19.0557 17.7772 26.4813 24.1555 26.4813C31.8855 26.3068 34.2083 31.978 34.9977 36.198C35.1544 36.8868 36.13 36.653 35.7383 35.3968C35.4679 32.3631 34.104 29.7178 31.6466 27.4607C34.24 28.4078 35.9126 30.0231 36.6644 32.3068C37.0405 32.7152 37.4422 32.3885 37.365 32.0885C36.6644 29.2285 35.1544 27.0863 31.2444 25.8274C29.5583 25.1041 26.9527 24.8135 23.5377 24.5935C18.505 24.433 18.6455 16.5307 24.695 17.3768C25.5577 17.263 28.855 18.7607 30.0111 19.3774C30.1916 20.5668 30.235 20.3541 31.8466 21.0785C32.4685 21.4844 32.9244 21.8972 33.2144 22.3168C33.5881 21.8168 34.0892 21.487 34.7177 21.3274C33.6644 21.1385 32.3189 20.1307 33.08 20.0463C32.7555 19.9352 32.4627 19.0913 32.0811 18.4274C31.9611 18.0724 31.1466 18.2041 30.4894 18.0707C28.4961 16.9291 25.6922 15.463 23.4544 15.4352C19.8427 15.0191 21.1405 11.9363 20.805 11.2141Z" fill="#050005" fill-opacity="0.522"/>
<path d="M30.3495 17.754L31.7845 17.9667C31.8211 17.4162 28.4189 14.7401 25.4334 13.8323C24.6 13.4084 24.0684 14.1495 25.1045 14.5117C27.4128 15.4823 29.6784 16.9245 30.3495 17.754Z" fill="#050005" fill-opacity="0.522"/>
<path d="M20.8111 10.3635C17.3348 8.70904 12.6195 7.95867 6.66503 8.11237L2.71781 8.15348C2.62493 8.18861 2.54999 8.23356 2.49873 8.28487C2.44748 8.33619 2.42128 8.39252 2.42214 8.44953C2.42299 8.50655 2.45089 8.56273 2.50368 8.61378C2.55648 8.66483 2.63277 8.70939 2.7267 8.74404L7.37059 9.07904C12.1239 9.49459 15.6808 10.1357 18.0411 11.0024C10.4571 11.2724 4.60189 11.9283 0.475589 12.9701C0.283923 13.0174 -0.0305217 13.8185 1.33837 13.5746C7.85911 12.7139 13.3054 12.3596 17.6773 12.5118C11.9454 13.7155 7.26911 15.5394 3.64837 17.9835C3.12003 18.474 3.5317 19.0568 4.44781 18.474C10.3078 15.4944 15.53 13.9431 20.1145 13.8201L20.8617 15.4729C16.2845 18.2052 17.7828 25.6307 24.1611 25.6307C31.8917 25.4563 34.2139 31.1274 35.0039 35.3474C35.16 36.0363 36.1356 35.8024 35.7445 34.5463C35.4741 31.5126 34.1102 28.867 31.6528 26.6096C34.2461 27.557 35.9187 29.1726 36.6706 31.4563C37.0467 31.8646 37.4484 31.5379 37.3711 31.2379C36.6706 28.3779 35.16 26.2357 31.2506 24.9768C29.5639 24.2535 26.9589 23.9629 23.5439 23.7429C18.5111 23.5824 18.6517 15.6802 24.7011 16.5263C25.5639 16.4124 28.8611 17.9102 30.0173 18.5268C30.1978 19.7163 30.2406 19.5035 31.8528 20.2279C32.4747 20.6339 32.9306 21.0466 33.2206 21.4663C33.5943 20.9663 34.0954 20.6364 34.7239 20.4768C33.6706 20.2879 32.325 19.2801 33.0856 19.1957C32.7611 19.0846 32.4684 18.2407 32.0867 17.5768C31.9673 17.2218 31.1528 17.3535 30.495 17.2201C28.5023 16.0785 25.6984 14.6124 23.4606 14.5846C19.8489 14.1685 21.1461 11.0857 20.8111 10.3635Z" fill="white"/>
<path d="M30.3549 16.9034L31.7905 17.1162C31.8266 16.5656 28.4249 13.8895 25.4388 12.9817C24.606 12.5578 24.0744 13.2989 25.1099 13.6612C27.4183 14.6317 29.6838 16.0739 30.3549 16.9034Z" fill="white"/>
</g>
<defs>
<radialGradient id="paint0_radial_430_5260" cx="0" cy="0" r="1" gradientUnits="userSpaceOnUse" gradientTransform="translate(2724.66 1056.89) rotate(-24.13) scale(1966.4)">
<stop stop-color="#4CB4FF"/>
<stop offset="1" stop-color="#0068FB"/>
</radialGradient>
<clipPath id="clip0_430_5260">
<rect width="40" height="40" fill="white" transform="translate(0 0.5)"/>
</clipPath>
</defs>
</svg>
