<svg width="40" height="41" viewBox="0 0 40 41" fill="none" xmlns="http://www.w3.org/2000/svg">
<path d="M37.5 20.5C37.5 30.16 29.6688 38 20 38C10.3312 38 2.5 30.16 2.5 20.5C2.5 10.8312 10.3312 3 20 3C29.6688 3 37.5 10.8312 37.5 20.5Z" fill="white"/>
<path d="M14.1329 27.8875C13.9762 27.654 13.8392 27.3391 13.728 26.9624C11.7196 24.6975 13.2711 21.3645 14.8057 19.1013C14.9529 18.8593 15.1131 18.6255 15.2874 18.4019C16.4582 16.9471 16.7611 15.9348 16.8512 14.5651C16.862 14.3101 16.8409 13.9726 16.8166 13.5848C16.6927 11.6046 16.4869 8.31468 20.0199 8.02301C24.4361 7.65837 24.0764 11.7138 24.0437 14.0915C24.0424 14.1899 24.041 14.2856 24.0401 14.378C24.0281 15.8113 24.7761 16.7926 25.5569 17.8169C25.842 18.191 26.1315 18.5708 26.39 18.9804C26.3976 18.9925 26.4052 19.0048 26.4129 19.0169C27.7772 20.9846 29.1242 23.9213 27.2494 26.7066C26.9859 27.6574 26.5869 28.53 26.0542 29.2401C24.142 31.7565 22.4424 31.501 21.115 31.3015C20.7146 31.2414 20.3481 31.1863 20.0199 31.2139C19.4746 31.2471 19.0376 31.3353 18.6601 31.4115C17.201 31.706 16.6307 31.8211 14.1329 27.8875Z" fill="black"/>
<path d="M22.5174 10.2432C22.4764 11.4086 21.2401 12.421 19.7581 12.5146C18.2761 12.6082 17.1134 11.7234 17.1544 10.5579C17.1952 9.39242 18.4316 8.38005 19.9136 8.28647C21.3956 8.2014 22.5582 9.07765 22.5174 10.2432Z" fill="url(#paint0_linear_430_5414)"/>
<path fill-rule="evenodd" clip-rule="evenodd" d="M19.832 13.0764C19.8438 13.7101 20.1341 14.2505 20.5417 14.4946C19.2118 14.3755 17.564 14.8616 17.564 15.7817C17.5435 17.3381 16.6772 19.2746 16.0536 20.6685C15.9308 20.9431 15.8175 21.1966 15.7217 21.422C15.3357 22.3779 15.1041 23.4002 15.0767 24.4029C14.0543 22.9936 14.7972 21.1857 15.1977 20.4011C15.7307 19.3686 15.7205 19.2397 15.5135 19.4817C14.7198 20.8312 13.2253 23.5419 15.0968 25.1702C15.1562 25.8974 15.3333 26.6019 15.6481 27.2495C18.1535 32.3029 22.8451 30.2271 24.3926 27.6069C24.5985 27.2342 24.765 26.8739 24.8971 26.5256C24.9746 26.5744 25.0576 26.6121 25.1458 26.637C25.9237 26.8667 27.0863 25.9905 27.3647 25.446C27.7005 24.7229 27.3566 24.2294 26.2103 23.6424C26.1518 23.6135 26.0941 23.5862 26.0371 23.5609C26.4767 21.7097 25.2652 19.7847 24.4 18.9681C24.2386 18.9282 24.2158 19.0197 24.4663 19.2696C25.0112 19.7919 26.1965 21.6537 25.5552 23.3866C25.4496 23.3582 25.348 23.3382 25.2511 23.3272C25.0541 22.145 24.5288 21.2252 24.1617 20.5825C24.0786 20.4369 24.0036 20.3055 23.9422 20.1885C23.8187 19.9524 23.671 19.7079 23.5142 19.4486C22.9103 18.4495 22.1737 17.2306 22.1737 15.4244C22.0813 15.027 21.7063 14.762 21.2072 14.6156C21.7866 14.4987 22.2215 13.8219 22.2065 13.0084C22.1901 12.1321 21.6415 11.4345 20.9865 11.4515C20.3315 11.4685 19.8075 12.2001 19.832 13.0764ZM20.3723 13.272C20.3642 13.757 20.5935 14.1482 20.8965 14.1482C21.1912 14.1482 21.445 13.757 21.4532 13.2805C21.4613 12.7956 21.2321 12.4043 20.9292 12.4043C20.6262 12.4043 20.3806 12.7956 20.3723 13.272Z" fill="url(#paint1_linear_430_5414)"/>
<path fill-rule="evenodd" clip-rule="evenodd" d="M18.1945 14.4374C18.6694 14.4119 19.0133 13.7739 18.9724 13.0168C18.9314 12.2596 18.5139 11.6726 18.0389 11.6981C17.564 11.7236 17.2201 12.3616 17.2611 13.1188C17.302 13.8759 17.7196 14.4629 18.1945 14.4374ZM18.481 13.2804C18.522 13.6803 18.3746 14.0205 18.1618 14.0546C17.9489 14.0801 17.7441 13.7824 17.7033 13.3825C17.6623 12.9827 17.8096 12.6424 18.0225 12.6084C18.2354 12.5828 18.4401 12.8806 18.481 13.2804Z" fill="url(#paint2_linear_430_5414)"/>
<path d="M20.4951 12.9994C20.4705 13.2716 20.5933 13.4929 20.7652 13.5099C20.9372 13.5269 21.101 13.3141 21.1255 13.0505C21.1501 12.7782 21.0272 12.557 20.8553 12.54C20.6833 12.523 20.5196 12.7357 20.4951 12.9994Z" fill="url(#paint3_linear_430_5414)"/>
<path d="M18.3013 13.068C18.3258 13.2892 18.2358 13.4849 18.1048 13.5019C17.9738 13.5189 17.8509 13.3487 17.8263 13.1191C17.8018 12.8979 17.8918 12.7022 18.0229 12.6852C18.1539 12.6682 18.2767 12.8468 18.3013 13.068Z" fill="url(#paint4_linear_430_5414)"/>
<path d="M23.3362 21.9404C23.3362 23.4377 21.9525 25.3774 19.5781 25.3604C17.1298 25.3774 16.0901 23.4377 16.0901 21.9404C16.0901 20.4432 17.7112 19.2266 19.7091 19.2266C21.7151 19.2352 23.3362 20.4432 23.3362 21.9404Z" fill="url(#paint5_linear_430_5414)"/>
<path d="M22.0432 17.2364C22.0187 18.7848 21.0444 19.1506 19.8161 19.1506C18.588 19.1506 17.6955 18.9208 17.5891 17.2364C17.5891 16.1816 18.588 15.5689 19.8161 15.5689C21.0444 15.5604 22.0432 16.1731 22.0432 17.2364Z" fill="url(#paint6_linear_430_5414)"/>
<path d="M14.617 19.6184C15.4195 18.3509 17.1143 16.4026 14.9364 19.8906C13.1678 22.7661 14.2814 24.6123 14.8545 25.1226C16.5084 26.654 16.4429 27.6834 15.141 26.8751C12.349 25.1481 12.9304 22.2386 14.617 19.6184Z" fill="url(#paint7_linear_430_5414)"/>
<path d="M26.2351 20.1373C25.5393 18.6486 23.3285 14.8713 26.3416 19.2611C29.0845 23.234 27.1604 25.9988 26.8165 26.2711C26.4726 26.5433 25.3181 27.0962 25.6539 26.135C25.9978 25.1736 27.7008 23.3531 26.2351 20.1373Z" fill="url(#paint8_linear_430_5414)"/>
<path d="M14.0111 31.8778C12.1771 30.8654 9.51604 32.0734 10.4822 29.334C10.6787 28.713 10.1956 27.7773 10.5067 27.1732C10.8752 26.433 11.6694 26.5947 12.1443 26.1013C12.611 25.5909 12.9057 24.7062 13.7819 24.8422C14.6497 24.9783 15.2311 26.0843 15.837 27.4454C16.2874 28.4153 17.8757 29.7849 17.7692 30.8739C17.6382 32.5413 15.8124 32.856 14.0111 31.8778Z" fill="url(#paint9_linear_430_5414)"/>
<path fill-rule="evenodd" clip-rule="evenodd" d="M12.3458 26.3005C11.8998 26.7884 11.0806 26.6714 10.7519 27.3097C10.5408 27.7195 10.7714 28.3495 10.8026 28.7984C10.841 29.353 10.3813 30.1388 10.6154 30.6124C10.8783 31.1443 12.0662 31.0753 12.5884 31.1517C13.8774 31.3399 16.0079 33.0082 17.1735 31.6768C18.313 30.3753 16.1227 28.7282 15.5855 27.5712C15.2361 26.7862 14.7132 25.2813 13.74 25.1284C13.0539 25.0219 12.7414 25.8679 12.3458 26.3005ZM13.8229 24.5558C15.0347 24.7459 15.6411 26.3169 16.0884 27.3215C16.7672 28.7784 19.0934 30.3444 17.5857 32.0664C16.2165 33.6304 14.0547 31.9505 12.5107 31.725C11.7396 31.6123 10.5232 31.6933 10.1197 30.8769C9.77276 30.1752 10.2952 29.5395 10.2467 28.84C10.2054 28.244 9.96956 27.604 10.2596 27.0383C10.6567 26.2432 11.4233 26.4357 11.9443 25.899C12.4976 25.291 12.8292 24.4014 13.8229 24.5558Z" fill="#E68C3F"/>
<path d="M26.7268 31.4095C28.0695 29.7167 31.058 30.0654 29.0439 27.7429C28.6181 27.241 28.7491 26.169 28.2251 25.7097C27.611 25.1482 26.9314 25.6075 26.3091 25.3183C25.6869 25.0035 25.0319 24.3995 24.2704 24.8249C23.5089 25.2588 23.427 26.3818 23.3534 27.862C23.2879 28.9254 22.3545 30.7034 22.8539 31.6818C23.5745 33.196 25.4495 32.9919 26.7268 31.4095Z" fill="url(#paint10_linear_430_5414)"/>
<path fill-rule="evenodd" clip-rule="evenodd" d="M27.2622 25.1226C27.6064 25.1135 28.0188 25.1376 28.406 25.4905C28.8877 25.9151 28.8924 26.6083 29.074 27.1886C29.289 27.8759 30.0427 28.2685 29.9975 29.0745C29.9239 30.3919 27.6423 30.7093 26.94 31.5948C26.2652 32.4308 25.4122 32.9285 24.6027 32.9956C23.375 33.0974 22.361 32.0651 22.4328 30.8048C22.491 29.7844 23.0108 28.8575 23.0742 27.8454C23.1107 27.1124 23.15 26.4329 23.2825 25.8811C23.4164 25.3235 23.6577 24.8434 24.1354 24.5711C25.1817 23.9866 26.1924 25.1506 27.2622 25.1226ZM24.4024 25.0795C24.1192 25.2413 23.939 25.5394 23.8233 26.0213C23.7062 26.509 23.6677 27.134 23.6304 27.8806C23.5679 28.8951 23.0472 29.8214 22.9892 30.839C22.9374 31.7464 23.6344 32.495 24.5584 32.4184C25.1855 32.3664 25.909 31.9704 26.5114 31.2245C27.0497 30.5465 29.3922 29.9169 29.4412 29.0409C29.4732 28.4689 28.7207 27.9323 28.5439 27.3678C28.4057 26.9259 28.3984 26.2414 28.0444 25.931C27.8182 25.7243 27.5802 25.6935 27.2762 25.7015C26.3953 25.7245 25.2202 24.6239 24.4024 25.0795Z" fill="#E68C3F"/>
<path d="M26.1445 29.1466C28.2241 25.9564 26.6766 25.9819 26.1526 25.7351C25.6286 25.48 25.0801 24.978 24.466 25.3269C23.8518 25.6841 23.8191 26.6029 23.8027 27.811C23.7782 28.6787 23.0822 30.1335 23.4998 30.9416C24.0075 31.886 25.2356 30.5162 26.1445 29.1466Z" fill="url(#paint11_linear_430_5414)"/>
<path d="M13.5852 29.6057C10.4739 27.5129 11.9313 26.7983 12.398 26.4664C12.963 26.041 12.9711 25.2244 13.6671 25.3009C14.363 25.3775 14.7724 26.2708 15.2391 27.3768C15.583 28.1679 16.7785 29.2228 16.6884 30.133C16.5737 31.205 14.928 30.4989 13.5852 29.6057Z" fill="url(#paint12_linear_430_5414)"/>
<path d="M27.1851 25.4201C26.9395 25.8625 25.9406 26.56 25.2774 26.3729C24.5979 26.1942 24.2867 25.1989 24.4259 24.4502C24.5487 23.5995 25.2774 23.557 26.1945 23.9824C27.1687 24.4417 27.4717 24.8331 27.1851 25.4201Z" fill="black"/>
<path d="M26.5135 25.1739C26.3579 25.4801 25.7029 25.965 25.2444 25.8374C24.7859 25.7097 24.5566 25.0207 24.6303 24.5017C24.6958 23.9147 25.187 23.8807 25.8094 24.17C26.4808 24.4932 26.6936 24.7655 26.5135 25.1739Z" fill="url(#paint13_linear_430_5414)"/>
<path d="M18.0467 14.072C18.3742 13.7571 19.1685 12.7958 20.675 13.7997C20.9534 13.9869 21.1826 14.0039 21.7149 14.2421C22.7875 14.7015 22.2797 15.8074 21.1335 16.1817C20.6422 16.3434 20.2001 16.9644 19.3159 16.9049C18.5544 16.8624 18.3579 16.3434 17.8911 16.0626C17.0642 15.5777 16.9414 14.9226 17.3917 14.5739C17.842 14.2251 18.014 14.0975 18.0467 14.072Z" fill="url(#paint14_linear_430_5414)"/>
<path fill-rule="evenodd" clip-rule="evenodd" d="M17.4916 14.713C17.3203 14.8456 17.2658 15.0219 17.3225 15.2169C17.4387 15.6174 18.277 16.1682 18.598 16.4377C18.7805 16.591 18.9892 16.7125 19.3266 16.7314C20.0491 16.78 20.4503 16.2241 21.0833 16.0159C21.4996 15.8799 22.3805 15.3604 22.0887 14.765C21.8397 14.2569 21.001 14.2255 20.5843 13.9455C19.8673 13.4679 19.3453 13.4712 18.9735 13.6052C18.566 13.7521 17.8606 14.4271 17.4916 14.713ZM18.8638 13.277C19.3476 13.1027 19.9765 13.1277 20.7657 13.6536C21.2845 14.0024 22.0737 13.9687 22.3866 14.6074C22.7852 15.4207 21.8193 16.1396 21.1837 16.3472C20.5031 16.5714 20.1228 17.1327 19.3058 17.0781C18.8822 17.0542 18.6105 16.8949 18.3878 16.708C17.926 16.3202 17.1456 15.9517 16.9672 15.3369C16.8682 14.9959 17.0126 14.6506 17.2917 14.4344C17.7428 14.085 18.3525 13.4614 18.8638 13.277Z" fill="#E68C3F"/>
<path fill-rule="evenodd" clip-rule="evenodd" d="M21.8432 14.9587C21.8465 15.0225 21.7994 15.0772 21.738 15.0805C20.8714 15.1297 20.2624 16.1187 19.2838 16.1187C18.7362 16.1187 18.3027 15.8544 17.9927 15.6003C17.9303 15.5492 17.3792 15.1243 17.3792 15.016C17.3792 14.952 17.429 14.9002 17.4907 14.9002C17.6058 14.9002 17.9532 15.2772 18.0824 15.3832C18.3744 15.6225 18.8079 15.887 19.2838 15.887C20.2527 15.887 20.847 14.8992 21.7258 14.8493C21.7873 14.8458 21.8398 14.8948 21.8432 14.9587Z" fill="#E68C3F"/>
<path d="M18.5553 13.9867C18.719 13.8336 19.2348 13.4167 19.9144 13.8421C20.0618 13.9271 20.2092 14.0207 20.422 14.1484C20.856 14.4121 20.6431 14.7949 20.119 15.0331C19.8816 15.1352 19.4886 15.3564 19.1939 15.3394C18.8664 15.3054 18.6453 15.0841 18.4324 14.9395C18.0311 14.6674 18.0558 14.4376 18.244 14.259C18.3833 14.1229 18.5389 13.9952 18.5553 13.9867Z" fill="url(#paint15_linear_430_5414)"/>
<defs>
<linearGradient id="paint0_linear_430_5414" x1="20.0722" y1="8.38272" x2="19.7955" y2="12.1325" gradientUnits="userSpaceOnUse">
<stop stop-color="white" stop-opacity="0.8"/>
<stop offset="1" stop-color="white" stop-opacity="0"/>
</linearGradient>
<linearGradient id="paint1_linear_430_5414" x1="16.1207" y1="28.8404" x2="14.0632" y2="22.0897" gradientUnits="userSpaceOnUse">
<stop stop-color="#FFEED7"/>
<stop offset="1" stop-color="#BDBFC2"/>
</linearGradient>
<linearGradient id="paint2_linear_430_5414" x1="16.1208" y1="28.8403" x2="14.0633" y2="22.0896" gradientUnits="userSpaceOnUse">
<stop stop-color="#FFEED7"/>
<stop offset="1" stop-color="#BDBFC2"/>
</linearGradient>
<linearGradient id="paint3_linear_430_5414" x1="20.8351" y1="12.5692" x2="20.7185" y2="13.4426" gradientUnits="userSpaceOnUse">
<stop stop-color="white" stop-opacity="0.65"/>
<stop offset="1" stop-color="white" stop-opacity="0"/>
</linearGradient>
<linearGradient id="paint4_linear_430_5414" x1="18.0425" y1="12.7289" x2="18.168" y2="13.4356" gradientUnits="userSpaceOnUse">
<stop stop-color="white" stop-opacity="0.65"/>
<stop offset="1" stop-color="white" stop-opacity="0"/>
</linearGradient>
<linearGradient id="paint5_linear_430_5414" x1="19.7016" y1="20.0381" x2="19.7225" y2="25.0338" gradientUnits="userSpaceOnUse">
<stop stop-color="white" stop-opacity="0.8"/>
<stop offset="1" stop-color="white" stop-opacity="0"/>
</linearGradient>
<linearGradient id="paint6_linear_430_5414" x1="19.813" y1="16.9058" x2="19.836" y2="18.8922" gradientUnits="userSpaceOnUse">
<stop stop-color="white" stop-opacity="0.65"/>
<stop offset="1" stop-color="white" stop-opacity="0"/>
</linearGradient>
<linearGradient id="paint7_linear_430_5414" x1="14.65" y1="18.1319" x2="14.65" y2="25.4215" gradientUnits="userSpaceOnUse">
<stop stop-color="white" stop-opacity="0.65"/>
<stop offset="1" stop-color="white" stop-opacity="0"/>
</linearGradient>
<linearGradient id="paint8_linear_430_5414" x1="26.2913" y1="17.4197" x2="26.2885" y2="24.0063" gradientUnits="userSpaceOnUse">
<stop stop-color="white" stop-opacity="0.65"/>
<stop offset="1" stop-color="white" stop-opacity="0"/>
</linearGradient>
<linearGradient id="paint9_linear_430_5414" x1="14.2857" y1="28.5469" x2="13.1692" y2="32.2769" gradientUnits="userSpaceOnUse">
<stop stop-color="#FFA63F"/>
<stop offset="1" stop-color="#FFFF00"/>
</linearGradient>
<linearGradient id="paint10_linear_430_5414" x1="24.8525" y1="27.4123" x2="27.832" y2="31.4749" gradientUnits="userSpaceOnUse">
<stop stop-color="#FFA63F"/>
<stop offset="1" stop-color="#FFFF00"/>
</linearGradient>
<linearGradient id="paint11_linear_430_5414" x1="25.6497" y1="24.1665" x2="24.6078" y2="29.0755" gradientUnits="userSpaceOnUse">
<stop stop-color="white" stop-opacity="0.65"/>
<stop offset="1" stop-color="white" stop-opacity="0"/>
</linearGradient>
<linearGradient id="paint12_linear_430_5414" x1="14.058" y1="25.38" x2="14.2646" y2="30.9047" gradientUnits="userSpaceOnUse">
<stop stop-color="white" stop-opacity="0.65"/>
<stop offset="1" stop-color="white" stop-opacity="0"/>
</linearGradient>
<linearGradient id="paint13_linear_430_5414" x1="25.4694" y1="24.0772" x2="25.711" y2="25.728" gradientUnits="userSpaceOnUse">
<stop stop-color="white" stop-opacity="0.65"/>
<stop offset="1" stop-color="white" stop-opacity="0"/>
</linearGradient>
<linearGradient id="paint14_linear_430_5414" x1="19.7055" y1="13.98" x2="19.7256" y2="16.8872" gradientUnits="userSpaceOnUse">
<stop stop-color="#FFA63F"/>
<stop offset="1" stop-color="#FFFF00"/>
</linearGradient>
<linearGradient id="paint15_linear_430_5414" x1="19.3883" y1="13.7049" x2="19.3828" y2="15.2421" gradientUnits="userSpaceOnUse">
<stop stop-color="white" stop-opacity="0.65"/>
<stop offset="1" stop-color="white" stop-opacity="0"/>
</linearGradient>
</defs>
</svg>
