<svg width="40" height="41" viewBox="0 0 40 41" fill="none" xmlns="http://www.w3.org/2000/svg">
<path fill-rule="evenodd" clip-rule="evenodd" d="M16.2705 3C13.5241 3 11.2978 5.15566 11.2978 7.81481V11.1482H19.9044V12.0741H7.47267C4.72634 12.0741 2.5 14.2298 2.5 16.8889V24.1111C2.5 26.7703 4.72634 28.9259 7.47267 28.9259H10.3415V24.8519C10.3415 22.1928 12.5679 20.037 15.3142 20.037H24.4945C26.8184 20.037 28.7021 18.213 28.7021 15.963V7.81481C28.7021 5.15566 26.4759 3 23.7295 3H16.2705ZM15.123 8.92593C16.0736 8.92593 16.8442 8.17973 16.8442 7.25926C16.8442 6.33879 16.0736 5.59259 15.123 5.59259C14.1722 5.59259 13.4016 6.33879 13.4016 7.25926C13.4016 8.17973 14.1722 8.92593 15.123 8.92593Z" fill="url(#paint0_linear_430_5181)"/>
<path fill-rule="evenodd" clip-rule="evenodd" d="M23.7292 38.0001C26.4756 38.0001 28.702 35.8445 28.702 33.1854V29.852H20.0954V28.9261H32.5271C35.2735 28.9261 37.4997 26.7704 37.4997 24.1112V16.889C37.4997 14.2299 35.2735 12.0742 32.5271 12.0742H29.6582V16.1482C29.6582 18.8075 27.4319 20.9631 24.6856 20.9631H15.5052C13.1814 20.9631 11.2976 22.7871 11.2976 25.0371V33.1854C11.2976 35.8445 13.524 38.0001 16.2702 38.0001H23.7292ZM24.8769 32.0742C23.9261 32.0742 23.1555 32.8204 23.1555 33.7409C23.1555 34.6614 23.9261 35.4075 24.8769 35.4075C25.8275 35.4075 26.5981 34.6614 26.5981 33.7409C26.5981 32.8204 25.8275 32.0742 24.8769 32.0742Z" fill="url(#paint1_linear_430_5181)"/>
<defs>
<linearGradient id="paint0_linear_430_5181" x1="15.6011" y1="3" x2="15.6011" y2="28.9259" gradientUnits="userSpaceOnUse">
<stop stop-color="#327EBD"/>
<stop offset="1" stop-color="#1565A7"/>
</linearGradient>
<linearGradient id="paint1_linear_430_5181" x1="24.3987" y1="12.0742" x2="24.3987" y2="38.0001" gradientUnits="userSpaceOnUse">
<stop stop-color="#FFDA4B"/>
<stop offset="1" stop-color="#F9C600"/>
</linearGradient>
</defs>
</svg>
