<svg width="40" height="41" viewBox="0 0 40 41" fill="none" xmlns="http://www.w3.org/2000/svg">
<path d="M32.888 14.2224C32.4731 14.0796 32.0431 13.9445 31.6004 13.8167C31.6732 13.5197 31.7399 13.2266 31.7993 12.9384C32.774 8.20701 32.1367 4.39535 29.9605 3.14039C27.8738 1.93705 24.4611 3.19172 21.0145 6.19122C20.6831 6.47964 20.3507 6.78502 20.0185 7.10506C19.7972 6.89331 19.5762 6.68869 19.3557 6.49296C15.7436 3.28571 12.1229 1.93413 9.94884 3.19272C7.86412 4.39955 7.24675 7.98288 8.12414 12.4669C8.20887 12.9 8.30791 13.3423 8.41991 13.792C7.90748 13.9374 7.41279 14.0925 6.93946 14.2575C2.70458 15.7339 0 18.0479 0 20.4481C0 22.9271 2.90337 25.4135 7.31432 26.9212C7.66242 27.0401 8.02361 27.1526 8.39584 27.2594C8.27501 27.7458 8.16992 28.2224 8.08171 28.6873C7.24511 33.0934 7.89844 36.5921 9.97761 37.7913C12.1252 39.0298 15.7295 37.7568 19.2391 34.6889C19.5165 34.4464 19.7949 34.1893 20.0738 33.9197C20.4352 34.2678 20.7962 34.5972 21.1551 34.9062C24.5546 37.8316 27.9122 39.0129 29.9894 37.8103C32.1349 36.5683 32.8321 32.8099 31.9269 28.2372C31.8578 27.888 31.7773 27.5312 31.687 27.1681C31.9401 27.0932 32.1886 27.016 32.4309 26.9357C37.0165 25.4164 40 22.9602 40 20.4481C40 18.0392 37.2082 15.7097 32.888 14.2224ZM31.8934 25.3137C31.6747 25.3861 31.4503 25.4561 31.2216 25.5239C30.7154 23.9213 30.0321 22.2171 29.1961 20.4565C29.9939 18.7377 30.6507 17.0553 31.1428 15.4631C31.552 15.5815 31.9491 15.7064 32.3318 15.8382C36.0333 17.1124 38.2912 18.9964 38.2912 20.4481C38.2912 21.9944 35.8528 24.0018 31.8934 25.3137ZM30.2506 28.5691C30.6509 30.5911 30.708 32.4192 30.4429 33.8483C30.2047 35.1324 29.7256 35.9886 29.1332 36.3315C27.8726 37.0612 25.1768 36.1127 22.2696 33.6109C21.9363 33.3241 21.6006 33.0179 21.2638 32.6938C22.3909 31.4611 23.5173 30.0281 24.6167 28.4366C26.5504 28.265 28.3773 27.9844 30.0341 27.6015C30.1157 27.9306 30.1881 28.2534 30.2506 28.5691ZM13.6369 36.2054C12.4053 36.6404 11.4244 36.6528 10.8314 36.3109C9.56971 35.5832 9.04518 32.7741 9.76066 29.0059C9.84261 28.5744 9.94016 28.1311 10.0526 27.678C11.6912 28.0403 13.5047 28.3011 15.443 28.4582C16.5498 30.0156 17.7088 31.447 18.8768 32.7004C18.6216 32.9468 18.3674 33.1813 18.1146 33.4023C16.5627 34.7589 15.0075 35.7213 13.6369 36.2054ZM7.86697 25.3042C5.91653 24.6376 4.30579 23.7711 3.2017 22.8257C2.2096 21.9761 1.70872 21.1326 1.70872 20.4481C1.70872 18.9916 3.88023 17.1338 7.50193 15.8711C7.94137 15.7178 8.40139 15.5735 8.87879 15.4378C9.37932 17.066 10.0359 18.7683 10.8283 20.4897C10.0257 22.2367 9.35974 23.9661 8.85429 25.6134C8.51396 25.5155 8.18424 25.4126 7.86697 25.3042ZM9.8011 12.1387C9.04938 8.29694 9.54863 5.39884 10.8049 4.67161C12.1431 3.89688 15.1023 5.00147 18.2211 7.77078C18.4204 7.94778 18.6206 8.13304 18.8213 8.32471C17.6591 9.57262 16.5107 10.9933 15.4138 12.5415C13.5325 12.7159 11.7317 12.996 10.0761 13.371C9.97198 12.9523 9.87978 12.5409 9.8011 12.1387ZM27.0553 16.3992C26.6595 15.7156 26.2532 15.0481 25.8389 14.3988C27.1152 14.5601 28.338 14.7743 29.4863 15.0364C29.1415 16.1413 28.7118 17.2965 28.206 18.4807C27.8432 17.7919 27.4594 17.0973 27.0553 16.3992ZM20.0191 9.54592C20.8073 10.3998 21.5966 11.3532 22.3729 12.3876C21.5906 12.3506 20.7986 12.3314 20 12.3314C19.209 12.3314 18.4228 12.3502 17.6453 12.3865C18.4224 11.3617 19.2186 10.4096 20.0191 9.54592ZM12.9378 16.411C12.5424 17.0966 12.1658 17.7874 11.8086 18.4795C11.311 17.2993 10.8853 16.1388 10.5376 15.0183C11.6788 14.7629 12.8959 14.5541 14.164 14.3958C13.7439 15.0511 13.3342 15.7236 12.9378 16.411ZM14.2005 26.6223C12.8903 26.4762 11.655 26.2781 10.514 26.0297C10.8673 24.8892 11.3024 23.7039 11.8106 22.4984C12.1686 23.1899 12.5468 23.881 12.9446 24.5681C13.3498 25.268 13.7696 25.9537 14.2005 26.6223ZM20.0664 31.4708C19.2565 30.597 18.4486 29.6304 17.6597 28.5906C18.4256 28.6207 19.2064 28.6361 20 28.6361C20.8153 28.6361 21.6213 28.6177 22.4146 28.5824C21.6357 29.6408 20.8492 30.6089 20.0664 31.4708ZM28.2223 22.4369C28.757 23.6555 29.2077 24.8346 29.5655 25.9557C28.4057 26.2203 27.1536 26.4334 25.8342 26.5917C26.2495 25.9337 26.6594 25.2547 27.0621 24.5563C27.4696 23.8497 27.8565 23.1421 28.2223 22.4369ZM25.582 23.7027C24.9567 24.7868 24.3148 25.8218 23.6631 26.7987C22.4761 26.8836 21.2498 26.9273 20 26.9273C18.7552 26.9273 17.5444 26.8886 16.3784 26.8129C15.7005 25.8232 15.0446 24.7852 14.4233 23.712C13.8037 22.6417 13.2335 21.5624 12.7167 20.4891C13.2333 19.4134 13.8022 18.3329 14.4182 17.2645L14.4181 17.2647C15.0358 16.1935 15.686 15.1606 16.3576 14.177C17.5473 14.0871 18.7671 14.0402 19.9999 14.0402C21.2383 14.0402 22.4598 14.0874 23.649 14.1782C24.3105 15.1545 24.9562 16.1841 25.5763 17.2555C26.2035 18.3388 26.7797 19.4122 27.3007 20.4649C26.7813 21.5356 26.2064 22.6198 25.582 23.7027ZM29.107 4.62077C30.4465 5.39321 30.9674 8.50847 30.1258 12.5935C30.0721 12.8542 30.0116 13.1197 29.946 13.3888C28.2865 13.0059 26.4844 12.7209 24.5977 12.5439C23.4986 10.9787 22.3596 9.55582 21.2164 8.32392C21.5237 8.02823 21.8307 7.74628 22.1363 7.48021C25.0894 4.91027 27.8495 3.8956 29.107 4.62077ZM20 16.8763C21.9727 16.8763 23.5719 18.4754 23.5719 20.4481C23.5719 22.4208 21.9727 24.02 20 24.02C18.0273 24.02 16.4281 22.4208 16.4281 20.4481C16.4281 18.4754 18.0273 16.8763 20 16.8763Z" fill="#00D8FF"/>
</svg>
