<svg width="40" height="41" viewBox="0 0 40 41" fill="none" xmlns="http://www.w3.org/2000/svg">
<g clip-path="url(#clip0_430_5243)">
<path fill-rule="evenodd" clip-rule="evenodd" d="M28.2059 6.32886C28.8614 6.98293 29.6042 7.72376 29.6042 7.72376C29.6042 7.72376 32.6628 7.95123 32.807 7.96373C32.9526 7.97623 33.1279 8.0875 33.1553 8.28875C33.1827 8.49 37.5 37.8263 37.5 37.8263L26.9059 40.1292L28.2059 6.32886ZM26.5808 5.21766C26.4996 5.22817 26.4292 5.2442 26.3802 5.25876C26.3541 5.26626 25.9163 5.40251 25.1911 5.62751C24.4809 3.57501 23.2283 1.68876 21.0255 1.68876C20.9646 1.68876 20.9011 1.69127 20.839 1.69502C20.2121 0.862517 19.4359 0.5 18.7655 0.5C13.6322 0.5 11.1794 6.95001 10.4107 10.2263C8.41563 10.8475 6.99892 11.2888 6.81857 11.3463C5.7041 11.6975 5.66927 11.7325 5.52375 12.7863C5.41305 13.585 2.5 36.2263 2.5 36.2263L25.1998 40.5L25.2239 40.4948L26.5808 5.21766ZM20.671 6.81002C20.671 6.88877 20.6698 6.96126 20.6698 7.03376C19.4198 7.42251 18.0627 7.84501 16.702 8.26876C17.4657 5.30626 18.8973 3.87498 20.1499 3.33498C20.4646 4.12998 20.671 5.27127 20.671 6.81002ZM18.6237 1.88377C18.8464 1.88377 19.069 1.96001 19.2829 2.10751C17.6374 2.88501 15.8749 4.845 15.1298 8.7575C14.0415 9.09625 12.978 9.4275 11.9941 9.73375C12.866 6.74875 14.937 1.88377 18.6237 1.88377ZM19.5081 19.3275C19.5081 19.3275 18.1797 18.615 16.5515 18.615C14.1633 18.615 14.0427 20.1213 14.0427 20.5C14.0427 22.5712 19.4135 23.365 19.4135 28.215C19.4135 32.03 17.0055 34.4875 13.7579 34.4875C9.86095 34.4875 7.86835 32.05 7.86835 32.05L8.91192 28.5862C8.91192 28.5862 10.9605 30.3538 12.6894 30.3538C13.8176 30.3538 14.2778 29.46 14.2778 28.8075C14.2778 26.1062 9.87091 25.985 9.87091 21.5462C9.87091 17.8112 12.5389 14.1962 17.9247 14.1962C19.9994 14.1962 21.0255 14.7938 21.0255 14.7938L19.5081 19.3275ZM22.0156 6.61501C22.0156 6.47876 22.0169 6.345 22.0169 6.19875C22.0169 4.92375 21.8402 3.89625 21.5579 3.0825C22.6935 3.225 23.4497 4.52373 23.9361 6.01748C23.3664 6.19498 22.7184 6.39626 22.0156 6.61501Z" fill="#81BF37"/>
</g>
<defs>
<clipPath id="clip0_430_5243">
<rect width="40" height="40" fill="white" transform="translate(0 0.5)"/>
</clipPath>
</defs>
</svg>
