<svg width="40" height="41" viewBox="0 0 40 41" fill="none" xmlns="http://www.w3.org/2000/svg">
<path fill-rule="evenodd" clip-rule="evenodd" d="M10.1363 6.48773L20 5.5L29.8636 6.48773L37.4999 16.1975L20 35.4999L2.5 16.1975L10.1363 6.48773Z" fill="#FDB300"/>
<path d="M9.58829 16.1978L19.9999 35.5003L2.5 16.1978H9.58829ZM30.4117 16.1978L19.9999 35.5003L37.5 16.1978" fill="#EA6C00"/>
<path fill-rule="evenodd" clip-rule="evenodd" d="M9.58862 16.1978H30.4117L20.0002 35.5003" fill="#FDAD00"/>
<path d="M20.0002 5.5L10.1366 6.48755L9.58862 16.1974L20.0002 5.5ZM20.0002 5.5L29.864 6.48755L30.412 16.1974" fill="#FDD231"/>
<path d="M37.5 16.1976L29.8638 6.48779L30.4117 16.1976H37.5ZM2.5 16.1976L10.1363 6.48779L9.58829 16.1976" fill="#FDAD00"/>
<path fill-rule="evenodd" clip-rule="evenodd" d="M20.0002 5.5L9.58862 16.1974H30.4117" fill="#FEEEB7"/>
</svg>
