<svg width="40" height="41" viewBox="0 0 40 41" fill="none" xmlns="http://www.w3.org/2000/svg">
<g clip-path="url(#clip0_430_5360)">
<path d="M40 11.5838V10.3774C39.9623 9.51027 39.9246 8.60546 39.7738 7.73835C39.623 6.87125 39.3591 6.04184 38.9444 5.25013C38.5297 4.45843 38.0396 3.74212 37.3987 3.13891C36.7578 2.49801 36.0415 2.0079 35.2875 1.5932C34.4958 1.1785 33.6664 0.914603 32.7993 0.763802C31.9322 0.613001 31.0651 0.537598 30.1603 0.537598H9.91522C9.68901 0.537598 9.46281 0.5376 9.27431 0.5753C8.63341 0.613001 7.9548 0.650701 7.31389 0.763802C6.67299 0.876903 6.03208 1.0654 5.42888 1.2916C5.24038 1.367 5.01418 1.48011 4.82568 1.55551C4.22247 1.85711 3.69467 2.23411 3.16686 2.64882C3.01606 2.79962 2.82756 2.95041 2.67676 3.10121C2.03586 3.74212 1.54575 4.45842 1.13105 5.21243C0.716345 6.00414 0.452445 6.83355 0.301643 7.70065C0.150842 8.56776 0.11314 9.43486 0.0754395 10.3397V30.5847C0.11314 31.4518 0.150842 32.3566 0.301643 33.2237C0.452445 34.0909 0.716345 34.9202 1.13105 35.712C1.54575 36.5037 2.03586 37.22 2.67676 37.8232C3.31767 38.4641 4.03397 38.9542 4.78797 39.3689C5.57968 39.7836 6.40909 40.0475 7.2762 40.1983C8.1433 40.3491 9.01041 40.4245 9.91522 40.4245H30.1603C31.0274 40.3868 31.9322 40.3491 32.7993 40.1983C33.6664 40.0475 34.4958 39.7836 35.2875 39.3689C36.0792 38.9542 36.7955 38.4641 37.3987 37.8232C38.0396 37.1823 38.5297 36.466 38.9444 35.712C39.3591 34.9202 39.623 34.0909 39.7738 33.2237C39.9246 32.3566 40 31.4895 40 30.5847V29.3783V12.9787V11.5838Z" fill="#F05138"/>
<path d="M31.6682 25.1938L31.7813 24.7414C33.4401 18.1439 29.4062 10.3022 22.5447 6.19287C25.5608 10.2645 26.8803 15.2032 25.7116 19.5011C25.5985 19.8781 25.4854 20.2551 25.3346 20.6321C25.1838 20.519 24.9953 20.4059 24.7314 20.2928C24.7314 20.2928 17.9076 16.0703 10.5183 8.64339C10.3298 8.45489 14.4769 14.5623 19.1517 19.5011C16.9274 18.257 10.7822 13.7706 6.86142 10.2268C7.35152 11.0185 7.91703 11.8102 8.52023 12.5265C11.7625 16.6735 16.0226 21.7631 21.1121 25.6839C17.5306 27.8705 12.4788 28.059 7.46462 25.6839C6.22051 25.1184 5.0518 24.4021 3.9585 23.6104C6.06971 27.0034 9.34963 29.9441 13.3459 31.6783C18.0961 33.7141 22.8463 33.601 26.3525 31.716C26.3525 31.716 26.3902 31.716 26.3902 31.6783C26.541 31.6029 26.6918 31.4898 26.8426 31.4144C28.5391 30.5473 31.8567 29.6801 33.6663 33.1486C34.1941 33.9403 35.1366 29.4162 31.6682 25.1938Z" fill="white"/>
</g>
<defs>
<clipPath id="clip0_430_5360">
<rect width="40" height="40" fill="white" transform="translate(0 0.5)"/>
</clipPath>
</defs>
</svg>
